<svg xmlns="http://www.w3.org/2000/svg" viewBox="0 0 800 600">
  <!-- Background -->
  <rect width="800" height="600" fill="#f5f5f5"/>
  
  <!-- Header -->
  <rect x="0" y="0" width="800" height="60" fill="#2c3e50"/>
  <text x="20" y="38" font-family="Arial" font-size="24" fill="white">ArchSpec</text>
  
  <!-- Project name and actions -->
  <rect x="200" y="15" width="200" height="30" rx="5" fill="#34495e"/>
  <text x="210" y="35" font-family="Arial" font-size="14" fill="white">Project: Web Application</text>
  
  <!-- Action buttons -->
  <rect x="600" y="15" width="80" height="30" rx="5" fill="#3498db"/>
  <text x="620" y="35" font-family="Arial" font-size="14" fill="white">Save</text>
  
  <rect x="700" y="15" width="80" height="30" rx="5" fill="#2ecc71"/>
  <text x="715" y="35" font-family="Arial" font-size="14" fill="white">Export</text>
  
  <!-- Sidebar -->
  <rect x="0" y="60" width="200" height="540" fill="#34495e"/>
  
  <!-- Sidebar navigation items -->
  <rect x="0" y="60" width="200" height="50" fill="#2c3e50"/>
  <text x="20" y="90" font-family="Arial" font-size="14" fill="white">Project Information</text>
  <circle cx="180" cy="85" r="10" fill="#2ecc71"/> <!-- completed -->
  
  <rect x="0" y="110" width="200" height="50" fill="#2c3e50"/>
  <text x="20" y="140" font-family="Arial" font-size="14" fill="white">Technology Stack</text>
  <circle cx="180" cy="135" r="10" fill="#2ecc71"/> <!-- completed -->
  
  <rect x="0" y="160" width="200" height="50" fill="#3498db"/>
  <text x="20" y="190" font-family="Arial" font-size="14" fill="white">Authentication & Security</text>
  <circle cx="180" cy="185" r="10" fill="#f39c12"/> <!-- in progress -->
  
  <rect x="0" y="210" width="200" height="50" fill="#2c3e50"/>
  <text x="20" y="240" font-family="Arial" font-size="14" fill="white">Data Models</text>
  <circle cx="180" cy="235" r="10" fill="#95a5a6"/> <!-- not started -->
  
  <rect x="0" y="260" width="200" height="50" fill="#2c3e50"/>
  <text x="20" y="290" font-family="Arial" font-size="14" fill="white">Features & Functions</text>
  <circle cx="180" cy="285" r="10" fill="#95a5a6"/> <!-- not started -->
  
  <rect x="0" y="310" width="200" height="50" fill="#2c3e50"/>
  <text x="20" y="340" font-family="Arial" font-size="14" fill="white">User Interface</text>
  <circle cx="180" cy="335" r="10" fill="#95a5a6"/> <!-- not started -->
  
  <rect x="0" y="360" width="200" height="50" fill="#2c3e50"/>
  <text x="20" y="390" font-family="Arial" font-size="14" fill="white">API Endpoints</text>
  <circle cx="180" cy="385" r="10" fill="#95a5a6"/> <!-- not started -->
  
  <rect x="0" y="410" width="200" height="50" fill="#2c3e50"/>
  <text x="20" y="440" font-family="Arial" font-size="14" fill="white">Testing Strategy</text>
  <circle cx="180" cy="435" r="10" fill="#95a5a6"/> <!-- not started -->
  
  <rect x="0" y="460" width="200" height="50" fill="#2c3e50"/>
  <text x="20" y="490" font-family="Arial" font-size="14" fill="white">Deployment</text>
  <circle cx="180" cy="485" r="10" fill="#95a5a6"/> <!-- not started -->
  
  <rect x="0" y="510" width="200" height="50" fill="#2c3e50"/>
  <text x="20" y="540" font-family="Arial" font-size="14" fill="white">Review & Export</text>
  <circle cx="180" cy="535" r="10" fill="#95a5a6"/> <!-- not started -->
  
  <!-- Main content area -->
  <rect x="200" y="60" width="600" height="540" fill="white"/>
  
  <!-- Section title -->
  <text x="220" y="90" font-family="Arial" font-size="20" font-weight="bold" fill="#2c3e50">Authentication & Security</text>
  
  <!-- Form elements -->
  <text x="220" y="130" font-family="Arial" font-size="16" fill="#2c3e50">Authentication Provider</text>
  <rect x="220" y="140" width="250" height="40" rx="5" fill="#ecf0f1" stroke="#bdc3c7"/>
  <text x="230" y="165" font-family="Arial" font-size="14" fill="#2c3e50">Custom (JWT)</text>
  
  <text x="500" y="130" font-family="Arial" font-size="16" fill="#2c3e50">Authentication Methods</text>
  <rect x="500" y="140" width="280" height="100" rx="5" fill="#ecf0f1" stroke="#bdc3c7"/>
  <rect x="510" y="150" width="20" height="20" fill="#3498db"/>
  <text x="540" y="165" font-family="Arial" font-size="14" fill="#2c3e50">Email/Password</text>
  <rect x="510" y="180" width="20" height="20" fill="#3498db"/>
  <text x="540" y="195" font-family="Arial" font-size="14" fill="#2c3e50">Google</text>
  <rect x="510" y="210" width="20" height="20" fill="white" stroke="#bdc3c7"/>
  <text x="540" y="225" font-family="Arial" font-size="14" fill="#2c3e50">Apple</text>
  
  <text x="220" y="260" font-family="Arial" font-size="16" fill="#2c3e50">User Roles</text>
  <rect x="220" y="270" width="250" height="100" rx="5" fill="#ecf0f1" stroke="#bdc3c7"/>
  <rect x="230" y="280" width="230" height="30" fill="white" stroke="#bdc3c7"/>
  <text x="240" y="300" font-family="Arial" font-size="14" fill="#2c3e50">admin</text>
  <rect x="230" y="320" width="230" height="30" fill="white" stroke="#bdc3c7"/>
  <text x="240" y="340" font-family="Arial" font-size="14" fill="#2c3e50">user</text>
  
  <!-- Auto-generated content -->
  <text x="220" y="400" font-family="Arial" font-size="16" fill="#2c3e50">Auto-generated Auth Flow</text>
  <rect x="220" y="410" width="560" height="170" rx="5" fill="#ecf0f1" stroke="#bdc3c7"/>
  
  <!-- Navigation buttons -->
  <rect x="220" y="600" width="100" height="40" rx="5" fill="#95a5a6" y="-40"/>
  <text x="245" y="585" font-family="Arial" font-size="14" fill="white">Previous</text>
  
  <rect x="680" y="600" width="100" height="40" rx="5" fill="#3498db" y="-40"/>
  <text x="715" y="585" font-family="Arial" font-size="14" fill="white">Next</text>
  
  <!-- Generate button -->
  <rect x="340" y="600" width="320" height="40" rx="5" fill="#2ecc71" y="-40"/>
  <text x="420" y="585" font-family="Arial" font-size="14" fill="white">Generate Auth Documentation</text>
</svg>
